<svg width="255" height="53" viewBox="0 0 255 53" fill="none" xmlns="http://www.w3.org/2000/svg">
<path fill-rule="evenodd" clip-rule="evenodd" d="M13.1282 19.3478C15.4835 24.5728 14.764 29.9915 11.5215 31.4542C8.27888 32.9168 3.74097 29.8682 1.38589 24.6443C-0.969402 19.4203 -0.250085 14.0011 2.99255 12.5386C6.23518 11.0765 10.7729 14.1253 13.1282 19.3478V19.3478Z" fill="#F14140"/>
<path fill-rule="evenodd" clip-rule="evenodd" d="M45.1807 19.3478C42.8253 24.5728 43.5448 29.9915 46.7876 31.4542C50.0302 32.9168 54.5677 29.8682 56.9233 24.6443C59.2783 19.4203 58.5589 14.0011 55.3163 12.5386C52.0739 11.0765 47.536 14.1253 45.1807 19.3478V19.3478Z" fill="#F14140"/>
<path fill-rule="evenodd" clip-rule="evenodd" d="M26.9109 8.87571C28.1182 14.4766 26.2779 19.6244 22.8006 20.3743C19.3236 21.1233 15.5261 17.19 14.319 11.5896C13.1119 5.9888 14.9522 0.84086 18.4293 0.0916044C21.9065 -0.657962 25.7038 3.27478 26.9109 8.87571V8.87571Z" fill="#F14140"/>
<path fill-rule="evenodd" clip-rule="evenodd" d="M31.3115 8.88047C30.1053 14.4813 31.9443 19.6295 35.4213 20.3785C38.8985 21.1285 42.6958 17.1952 43.9029 11.5945C45.1101 5.99356 43.27 0.845627 39.7927 0.0963718C36.3154 -0.652987 32.5182 3.27954 31.3115 8.88047V8.88047Z" fill="#F14140"/>
<path fill-rule="evenodd" clip-rule="evenodd" d="M22.5588 27.5986C21.7102 29.0644 17.7775 33.9165 15.0575 35.5718C12.3377 37.2271 8.96732 39.6511 9.53291 45.2169C10.0982 50.7838 15.8078 53.1663 19.5665 52.955C23.3253 52.7447 30.4121 52.0527 35.4718 52.754C40.5311 53.4553 46.9169 52.9239 48.4123 47.5943C49.9077 42.2647 46.5632 38.869 43.9534 36.9423C41.3437 35.0166 36.9855 29.256 35.6428 26.6114C34.3003 23.9678 27.4669 19.1261 22.5588 27.5986V27.5986Z" fill="#F14140"/>
</svg>
